<svg id="regular" enable-background="new 0 0 24 24" height="512" viewBox="0 0 24 24" width="512" xmlns="http://www.w3.org/2000/svg"><path d="m21.25 5h-18.5c-1.52 0-2.75 1.23-2.75 2.75v11.5c0 1.52 1.23 2.75 2.75 2.75h18.5c1.52 0 2.75-1.23 2.75-2.75v-11.5c0-1.52-1.23-2.75-2.75-2.75z" fill="#607d8b"/><path d="m21.25 22h-18.5c-1.517 0-2.75-1.233-2.75-2.75v-11.5c0-1.517 1.233-2.75 2.75-2.75h18.5c1.517 0 2.75 1.233 2.75 2.75v11.5c0 1.517-1.233 2.75-2.75 2.75zm-18.5-15.5c-.689 0-1.25.561-1.25 1.25v11.5c0 .689.561 1.25 1.25 1.25h18.5c.689 0 1.25-.561 1.25-1.25v-11.5c0-.689-.561-1.25-1.25-1.25z"/><path d="m15.25 6.5c-.414 0-.75-.336-.75-.75v-2c0-.138-.112-.25-.25-.25h-4.5c-.138 0-.25.112-.25.25v2c0 .414-.336.75-.75.75s-.75-.336-.75-.75v-2c0-.965.785-1.75 1.75-1.75h4.5c.965 0 1.75.785 1.75 1.75v2c0 .414-.336.75-.75.75z"/><path d="m23.25 12.5h-22.5c-.414 0-.75-.336-.75-.75s.336-.75.75-.75h22.5c.414 0 .75.336.75.75s-.336.75-.75.75z"/><path d="m6.75 14.167c-.414 0-.75-.336-.75-.75v-3.667c0-.414.336-.75.75-.75s.75.336.75.75v3.667c0 .414-.336.75-.75.75z"/><path d="m17.25 14.167c-.414 0-.75-.336-.75-.75v-3.667c0-.414.336-.75.75-.75s.75.336.75.75v3.667c0 .414-.336.75-.75.75z"/></svg>